<?xml version="1.0" encoding="utf-8"?>
<!-- Generator: Adobe Illustrator 21.1.0, SVG Export Plug-In . SVG Version: 6.00 Build 0)  -->
<svg version="1.1" id="Camada_1" xmlns="http://www.w3.org/2000/svg" xmlns:xlink="http://www.w3.org/1999/xlink" x="0px" y="0px"
	 viewBox="0 0 500 300" style="enable-background:new 0 0 500 300;" xml:space="preserve">
<style type="text/css">
	.st0{fill:none;}
	.st1{fill:#FFFFFF;}
	.st2{font-family:'Moon-Light';}
	.st3{font-size:81.7209px;}
	.st4{font-size:12.2581px;}
	.st5{font-size:120px;}
</style>
<polyline id="_x3C_Fatia_x3E__1_" class="st0" points="530,76 530,224 -29,224 -29,76 "/>
<text transform="matrix(1 0 0 1 49.999 178.4727)"><tspan x="0" y="0" class="st1 st2 st3">C</tspan><tspan x="53.3" y="0" class="st1 st2 st4"> </tspan><tspan x="56.3" y="0" class="st1 st2 st3">h</tspan><tspan x="113.9" y="0" class="st1 st2 st4"> </tspan><tspan x="116.9" y="0" class="st1 st2 st3">e</tspan><tspan x="165.1" y="0" class="st1 st2 st4"> </tspan><tspan x="168.2" y="0" class="st1 st2 st3">r</tspan><tspan x="218.1" y="0" class="st1 st2 st4"> </tspan><tspan x="221.1" y="0" class="st1 st2 st3">T</tspan><tspan x="263.9" y="0" class="st1 st2 st4"> </tspan><tspan x="266.9" y="0" class="st1 st2 st3">r</tspan><tspan x="316.8" y="0" class="st1 st2 st4"> </tspan><tspan x="319.9" y="0" class="st1 st2 st3">  </tspan><tspan x="360.4" y="0" class="st1 st2 st4"> </tspan><tspan x="363.5" y="0" class="st1 st2 st3">p</tspan></text>
<text transform="matrix(1 0 0 1 355.8867 187.8457)" class="st1 st2 st5">Y</text>
<circle class="st1" cx="389" cy="190" r="7"/>
<circle class="st1" cx="356" cy="102" r="7"/>
<circle class="st1" cx="422" cy="102" r="7"/>
</svg>
