<?xml version="1.0" encoding="utf-8"?>
<!-- Generator: Adobe Illustrator 21.1.0, SVG Export Plug-In . SVG Version: 6.00 Build 0)  -->
<svg version="1.1" id="Camada_1" xmlns="http://www.w3.org/2000/svg" xmlns:xlink="http://www.w3.org/1999/xlink" x="0px" y="0px"
	 viewBox="0 0 1366 768" style="enable-background:new 0 0 1366 768;" xml:space="preserve">
<style type="text/css">
	.st0{fill:none;}
	.st1{font-family:'Moon-Light';}
	.st2{font-size:100px;}
	.st3{font-size:15px;}
	.st4{font-size:140px;}
</style>
<rect x="98.5" y="196.5" class="st0" width="1162.5" height="430"/>
<text transform="matrix(1 0 0 1 377.1279 266.6172)"><tspan x="0" y="0" class="st1 st2">C</tspan><tspan x="65.2" y="0" class="st1 st3"> </tspan><tspan x="68.9" y="0" class="st1 st2">h</tspan><tspan x="139.4" y="0" class="st1 st3"> </tspan><tspan x="143.1" y="0" class="st1 st2">e</tspan><tspan x="202.1" y="0" class="st1 st3"> </tspan><tspan x="205.8" y="0" class="st1 st2">r</tspan><tspan x="266.9" y="0" class="st1 st3"> </tspan><tspan x="270.6" y="0" class="st1 st2">T</tspan><tspan x="322.9" y="0" class="st1 st3"> </tspan><tspan x="326.6" y="0" class="st1 st2">r</tspan><tspan x="387.7" y="0" class="st1 st3"> </tspan><tspan x="391.4" y="0" class="st1 st2">  </tspan><tspan x="441" y="0" class="st1 st3"> </tspan><tspan x="444.7" y="0" class="st1 st2">p</tspan></text>
<rect x="655" y="174" class="st0" width="381" height="167"/>
<text transform="matrix(1 0 0 1 753.3906 272.1641)" class="st1 st4">Y</text>
<circle cx="792" cy="273" r="7"/>
<circle cx="754" cy="174" r="7"/>
<circle cx="832" cy="174" r="7"/>
<path class="st0" d="M905,155h-14.1c6.2,8.1,10.7,16.8,14.1,26V155z"/>
<path class="st0" d="M348.2,291.5c-0.2,3.8-0.4,7.7-0.6,11.5h4.2c0.1-1.4,0.2-2.8,0.2-4C351.1,296.2,349.2,294.2,348.2,291.5z"/>
<path class="st0" d="M424,159c6,1,10-2,16-3c1.7-0.2,3.4-0.5,5.1-1H346v11.3c23.7-2,47.8-0.4,72-4.3C420,162,422,159,424,159z"/>
<path class="st0" d="M905,181c-3.4-9.2-7.9-18,31.9,53H491.1c-47.7-78.5-49.4-78.2-51.1-78c-6,1-10,4-16,3c-2,0-4,3-6,3
	c-24.2,3.9-48.3,2.3-72,4.3v67.9c0.4,2.3,0.7,4.5,1,6.8c2.2,17,2,33.7,1.2,50.5c1,2.7,2.9,4.7,3.8,7.5c0,1.2-0.1,2.6-0.2,4H905V181z
	"/>
<path class="st0" d="M346,264.4V303h1.5c0.2-3.9,0.4-7.7,0.6-11.5c-0.1-0.2-0.1-0.3-0.2-0.5C346.7,282.1,346.3,273.3,346,264.4z"/>
<path class="st0" d="M347,241c-0.3-2.3-0.6-4.5-1-6.8v30.2c0.3,8.9,0.7,17.7,2,26.6c0.1,0.2,0.1,0.3,0.2,0.5
	C349,274.7,349.2,258,347,241z"/>
</svg>
